<svg xmlns="http://www.w3.org/2000/svg" xmlns:xlink="http://www.w3.org/1999/xlink" viewBox="0 0 512 512"><defs><linearGradient id="linear-gradient" x1="256" y1="511.84" x2="256" y2="0.16" gradientUnits="userSpaceOnUse"><stop offset="0" stop-color="#934008"/><stop offset="0.02" stop-color="#96440a"/><stop offset="0.05" stop-color="#9d500e"/><stop offset="0.07" stop-color="#aa6516"/><stop offset="0.1" stop-color="#bb8121"/><stop offset="0.12" stop-color="#d2a630"/><stop offset="0.14" stop-color="#eed241"/><stop offset="0.16" stop-color="#ffee4c"/><stop offset="0.45" stop-color="#f8df46"/><stop offset="0.53" stop-color="#d9ad23"/><stop offset="0.61" stop-color="#ba7b00"/><stop offset="0.82" stop-color="#b15300"/><stop offset="0.93" stop-color="#fac029"/></linearGradient><linearGradient id="linear-gradient-2" x1="256" y1="507.76" x2="256" y2="4.24" gradientUnits="userSpaceOnUse"><stop offset="0" stop-color="#934008"/><stop offset="0.07" stop-color="#96440a"/><stop offset="0.14" stop-color="#9d500e"/><stop offset="0.21" stop-color="#aa6516"/><stop offset="0.29" stop-color="#bc8121"/><stop offset="0.36" stop-color="#d4a630"/><stop offset="0.43" stop-color="#f0d241"/><stop offset="0.45" stop-color="#f8df46"/><stop offset="0.59" stop-color="#deac2d"/><stop offset="0.82" stop-color="#b15300"/></linearGradient><linearGradient id="linear-gradient-3" x1="256" y1="497.56" x2="256" y2="6.28" gradientUnits="userSpaceOnUse"><stop offset="0.07" stop-color="#fac029"/><stop offset="0.3" stop-color="#b15300"/><stop offset="0.48" stop-color="#ba7b00"/><stop offset="0.57" stop-color="#d9ad23"/><stop offset="0.68" stop-color="#f8df46"/><stop offset="0.84" stop-color="#ffee4c"/><stop offset="0.86" stop-color="#eed241"/><stop offset="0.88" stop-color="#d2a630"/><stop offset="0.9" stop-color="#bb8121"/><stop offset="0.93" stop-color="#aa6516"/><stop offset="0.95" stop-color="#9d500e"/><stop offset="0.98" stop-color="#96440a"/><stop offset="1" stop-color="#934008"/></linearGradient><linearGradient id="Degradado_sin_nombre_11" x1="120.44" y1="261.8" x2="395.65" y2="261.8" gradientUnits="userSpaceOnUse"><stop offset="0.16" stop-color="#ffee4c"/><stop offset="0.45" stop-color="#f8df46"/></linearGradient></defs><title>vimeo-other</title><g style="isolation:isolate"><g id="Layer_1" data-name="Layer 1"><path d="M256,511.84C115,511.84.23,397.07.23,256S115,.16,256,.16,511.77,114.93,511.77,256,397,511.84,256,511.84Z" fill="url(#linear-gradient)"/><path d="M256,507.76C117.22,507.76,4.31,394.82,4.31,256S117.22,4.24,256,4.24,507.69,117.18,507.69,256,394.78,507.76,256,507.76Z" fill="url(#linear-gradient-2)"/><ellipse cx="256" cy="251.92" rx="245.57" ry="245.64" fill="url(#linear-gradient-3)"/><ellipse cx="256" cy="251.92" rx="245.57" ry="245.64" fill="none" stroke="#a57100" stroke-miterlimit="10" stroke-width="2.04" style="mix-blend-mode:hard-light"/><path d="M256,511.84C115,511.84.23,397.07.23,256S115,.16,256,.16,511.77,114.93,511.77,256,397,511.84,256,511.84ZM256,43C138.56,43,43,138.53,43,256s95.54,213,213,213,213-95.57,213-213S373.43,43,256,43Z" fill="url(#linear-gradient)"/><path d="M256,507.76C117.22,507.76,4.31,394.82,4.31,256S117.22,4.24,256,4.24,507.69,117.18,507.69,256,394.78,507.76,256,507.76Zm0-468.88C136.31,38.88,38.94,136.28,38.94,256S136.31,473.12,256,473.12,473.06,375.72,473.06,256,375.68,38.88,256,38.88Z" fill="url(#linear-gradient-2)"/><path d="M256,28.68c123.06,0,223.18,100.14,223.18,223.24S379.06,475.16,256,475.16,32.82,375,32.82,251.92,132.94,28.68,256,28.68m0-22.4c-135.62,0-245.57,110-245.57,245.64S120.37,497.56,256,497.56s245.57-110,245.57-245.64S391.62,6.28,256,6.28Z" fill="url(#linear-gradient-3)"/><g style="mix-blend-mode:hard-light"><path d="M256,28.68c123.06,0,223.18,100.14,223.18,223.24S379.06,475.16,256,475.16,32.82,375,32.82,251.92,132.94,28.68,256,28.68m0-22.4c-135.62,0-245.57,110-245.57,245.64S120.37,497.56,256,497.56s245.57-110,245.57-245.64S391.62,6.28,256,6.28Z" fill="none" stroke="#a57100" stroke-miterlimit="10" stroke-width="2.04"/></g><path d="M355.61,150.79c26.63.71,39.9,15.8,40,45.4,0,1.93-.06,4-.13,6.06q-1.74,37.64-56.08,102.47-56,67.93-95,68.09-24.28,0-40.43-41.58l-11.34-38.06-11.15-38q-12.39-41.3-26.5-41.27-3.1,0-21.47,12l-13.09-15.48,20.3-16.82L160.67,177c17.86-14.31,31.45-22.12,40.73-23.21a37.21,37.21,0,0,1,3.82-.2c19.07,0,31.08,13.73,35.71,41.27q4,23.51,6.57,38.25c1.67,9.79,3.11,16.62,4.26,20.57q9.48,39,20.43,39.21c5.68,0,14.31-8.52,26-25.47q17.21-26.13,18.44-38.7a42.83,42.83,0,0,0,.33-4.77c0-11.42-6.26-17.09-18.77-17.09a59,59,0,0,0-20.24,4q19.34-59.87,74.57-60Zm0,0" fill="url(#Degradado_sin_nombre_11)"/><path d="M353.57,148.75c26.63.71,39.9,15.8,40,45.4,0,1.93-.06,4-.13,6.06q-1.74,37.64-56.08,102.47-56,67.93-95,68.09-24.28,0-40.43-41.58L190.6,291.13l-11.15-38q-12.39-41.3-26.5-41.27-3.1,0-21.47,12L118.4,208.4l20.3-16.82,19.93-16.65c17.86-14.31,31.45-22.12,40.73-23.21a37.21,37.21,0,0,1,3.82-.2c19.07,0,31.08,13.73,35.71,41.27q4,23.51,6.57,38.25c1.67,9.79,3.11,16.62,4.26,20.57q9.48,39,20.43,39.21c5.68,0,14.31-8.52,26-25.47q17.21-26.13,18.44-38.7a42.83,42.83,0,0,0,.33-4.77c0-11.42-6.26-17.09-18.77-17.09a59,59,0,0,0-20.24,4q19.34-59.87,74.57-60Zm0,0" fill="#633e00"/></g></g></svg>